<?xml version="1.0" standalone="no"?>
<!DOCTYPE svg PUBLIC "-//W3C//DTD SVG 1.1//EN"
  "http://www.w3.org/Graphics/SVG/1.1/DTD/svg11.dtd">
<svg width="89.5290470123291mm" height="30.573455154895775mm" viewBox="-60.042022705078125 -0.28672724962234497 89.5290470123291 30.573455154895775" xmlns="http://www.w3.org/2000/svg" version="1.1">
	<title>svgOutput</title>
	<desc>made with tinkercad</desc>
<path d="M 28.30805206298828 1.9440839290618892 L 28.309293746948242 1.9465889930725093 L 28.359512329101562 2.04800009727478 L 28.37254524230957 2.074318170547485 L 28.442031860351562 2.2156257629394527 L 28.463666915893555 2.3491888046264644 L 28.487024307250977 2.4939999580383296 L 28.487024307250977 4.09600019454956 L 28.487024307250977 8.19200038909912 L 28.487024307250977 16.38400077819824 L 28.487024307250977 24.57600021362304 L 28.487024307250977 26.6240005493164 L 28.487024307250977 27.50600051879882 L 28.46538734436035 27.639562606811516 L 28.464027404785156 27.64800071716308 L 28.442031860351562 27.78437423706054 L 28.441879272460938 27.78467941284179 L 28.377538681030273 27.914608001708977 L 28.30805206298828 28.055915832519524 L 28.306867599487305 28.05731582641601 L 28.20319938659668 28.1799087524414 L 28.0887508392334 28.314208984374993 L 27.944786071777344 28.428632736206048 L 27.789464950561523 28.552423477172844 L 27.787940979003906 28.553293228149407 L 27.648000717163086 28.633213043212884 L 27.610965728759766 28.65436363220214 L 27.579984664916992 28.67200088500976 L 27.417104721069336 28.764722824096673 L 27.20823097229004 28.851684570312493 L 26.981670379638672 28.94627952575683 L 26.979358673095703 28.94697189331054 L 26.746999740600586 29.016597747802727 L 26.624000549316406 29.05335617065429 L 26.492996215820312 29.0925064086914 L 26.239185333251953 29.143684387207024 L 25.963577270507812 29.199157714843743 L 25.696035385131836 29.230363845825188 L 25.40641212463379 29.264814376831048 L 25.397741317749023 29.265157699584954 L 25.132213592529297 29.27563285827636 L 24.834999084472656 29.28672790527343 L 24.576000213623047 29.28672790527343 L 16.384000778198242 29.28672790527343 L 0 29.28672790527343 L -16.384000778198242 29.28672790527343 L -32.768001556396484 29.28672790527343 L -49.152000427246094 29.28672790527343 L -53.24800109863281 29.28672790527343 L -55.29600143432617 29.28672790527343 L -55.38999938964844 29.28672790527343 L -55.66419982910156 29.275909423828118 L -55.9614143371582 29.264814376831048 L -55.96959686279297 29.26386070251464 L -56.22895431518555 29.233608245849602 L -56.31999969482422 29.222778320312493 L -56.518577575683594 29.199157714843743 L -56.77238845825195 29.147979736328118 L -57.047996520996094 29.0925064086914 L -57.04903030395508 29.092197418212884 L -57.28266906738281 29.0221881866455 L -57.34400177001953 29.003860473632805 L -57.53667068481445 28.94627952575683 L -57.53840255737305 28.945558547973626 L -57.74554443359375 28.85931777954101 L -57.972103118896484 28.764722824096673 L -58.134464263916016 28.67200088500976 L -58.150604248046875 28.662782669067376 L -58.34446334838867 28.552423477172844 L -58.34604263305664 28.551170349121087 L -58.36800003051758 28.533718109130852 L -58.48843002319336 28.43799972534179 L -58.64375305175781 28.314208984374993 L -58.749019622802734 28.190216064453118 L -58.863468170166016 28.055915832519524 L -58.86405563354492 28.05471992492675 L -58.92754364013672 27.925682067871087 L -58.997032165527344 27.78437423706054 L -59.01866912841797 27.65081024169921 L -59.01912307739258 27.64800071716308 L -59.042022705078125 27.50600051879882 L -59.042022705078125 26.6240005493164 L -59.042022705078125 24.57600021362304 L -59.042022705078125 16.38400077819824 L -59.042022705078125 8.19200038909912 L -59.042022705078125 4.09600019454956 L -59.042022705078125 2.4939999580383296 L -59.020389556884766 2.360437154769897 L -58.997032165527344 2.2156257629394527 L -58.99687957763672 2.2153172492980953 L -58.932952880859375 2.085391521453857 L -58.91456604003906 2.04800009727478 L -58.863468170166016 1.9440839290618892 L -58.86337661743164 1.943974137306213 L -58.75819778442383 1.8200908899307247 L -58.64375305175781 1.6857901811599727 L -58.499786376953125 1.5713671445846553 L -58.34446334838867 1.447576880455017 L -58.34294128417969 1.4467066526412964 L -58.16596603393555 1.3456363677978516 L -57.972103118896484 1.235276222229004 L -57.76322937011719 1.1483147144317627 L -57.53667068481445 1.053720235824585 L -57.534358978271484 1.0530272722244263 L -57.43748474121094 1.0240000486373901 L -57.34400177001953 0.9959871768951415 L -57.301998138427734 0.9834020733833312 L -57.047996520996094 0.9074929952621459 L -56.794185638427734 0.8563146591186522 L -56.518577575683594 0.8008426427841185 L -56.31999969482422 0.7776805162429808 L -56.251033782958984 0.7696363925933837 L -55.9614143371582 0.7351853251457214 L -55.95274353027344 0.7348431944847107 L -55.68721389770508 0.7243671417236328 L -55.38999938964844 0.713272750377655 L -55.29600143432617 0.713272750377655 L -53.24800109863281 0.713272750377655 L -49.152000427246094 0.713272750377655 L -32.768001556396484 0.713272750377655 L -16.384000778198242 0.713272750377655 L 0 0.713272750377655 L 16.384000778198242 0.713272750377655 L 24.576000213623047 0.713272750377655 L 24.834999084472656 0.713272750377655 L 25.10919952392578 0.7240909337997437 L 25.40641212463379 0.7351853251457214 L 25.414596557617188 0.7361400127410889 L 25.600000381469727 0.7577654719352721 L 25.673954010009766 0.766391634941101 L 25.963577270507812 0.8008426427841185 L 26.217388153076172 0.8520209789276122 L 26.492996215820312 0.9074929952621459 L 26.49403190612793 0.9078032374382018 L 26.624000549316406 0.946747601032257 L 26.72766876220703 0.9778112173080443 L 26.88222312927246 1.0240000486373901 L 26.981670379638672 1.053720235824585 L 27.1905460357666 1.1406818628311157 L 27.417104721069336 1.235276222229004 L 27.595603942871094 1.3372167348861694 L 27.648000717163086 1.3670440912246704 L 27.789464950561523 1.447576880455017 L 27.791040420532227 1.4488294124603271 L 27.933429718017578 1.5620000362396236 L 28.0887508392334 1.6857901811599727 L 28.193605422973633 1.8097832202911373 L 28.30805206298828 1.9440839290618892 z" fill="none" stroke="rgb(255,0,0)" stroke-width="0.001mm" />
</svg>